<svg id="Group_1897" data-name="Group 1897" xmlns="http://www.w3.org/2000/svg" width="19.999" height="15.999" viewBox="0 0 19.999 15.999">
  <g id="Group_1896" data-name="Group 1896" transform="translate(0 0)">
    <path id="Path_1292" data-name="Path 1292" d="M17.608,49.886H15.521l-1.152-1.739A2.394,2.394,0,0,0,12.391,47.1H7.608A2.394,2.394,0,0,0,5.63,48.147L4.478,49.886H2.391A2.384,2.384,0,0,0,0,52.278v8.434A2.384,2.384,0,0,0,2.391,63.1H17.608A2.384,2.384,0,0,0,20,60.712V52.278A2.384,2.384,0,0,0,17.608,49.886ZM10,61.147a5.38,5.38,0,1,1,5.391-5.369A5.39,5.39,0,0,1,10,61.147Zm7.3-7.891h-.956a.707.707,0,0,1,0-1.413h.87a.706.706,0,0,1,.739.674A.688.688,0,0,1,17.3,53.256Z" transform="translate(0 -47.104)"/>
  </g>
</svg>
