<svg xmlns="http://www.w3.org/2000/svg" width="30.726" height="38.408" viewBox="0 0 30.726 38.408">
  <g id="Icon_ionic-ios-copy" data-name="Icon ionic-ios-copy" transform="translate(-4.5 -1.125)">
    <path id="Path_1328" data-name="Path 1328" d="M24.935,9.046h7.2a.482.482,0,0,0,.48-.48h0a2.233,2.233,0,0,0-.8-1.7L25.648,1.724A2.993,2.993,0,0,0,24,1.132h0a.591.591,0,0,0-.592.592v5.8A1.532,1.532,0,0,0,24.935,9.046Z" transform="translate(2.609 0.001)" fill="#989898"/>
    <path id="Path_1329" data-name="Path 1329" d="M23.168,7.526v-6.4H12.686a2.568,2.568,0,0,0-2.561,2.561V30.571a2.568,2.568,0,0,0,2.561,2.561h19.2a2.568,2.568,0,0,0,2.561-2.561V11.127H26.768A3.606,3.606,0,0,1,23.168,7.526Z" transform="translate(0.776)" fill="#989898"/>
    <path id="Path_1330" data-name="Path 1330" d="M8.661,32.191V5.625h-1.6A2.568,2.568,0,0,0,4.5,8.186V36.351a2.568,2.568,0,0,0,2.561,2.561H27.545a2.568,2.568,0,0,0,2.561-2.561v-1.6H11.221A2.568,2.568,0,0,1,8.661,32.191Z" transform="translate(0 0.621)" fill="#989898"/>
  </g>
</svg>
