<svg xmlns="http://www.w3.org/2000/svg" width="21.969" height="20.999" viewBox="0 0 21.969 20.999">
  <path id="dislike" d="M21.969,25.466V11.815a.515.515,0,0,0-.515-.515H16.588V25.98h4.866A.515.515,0,0,0,21.969,25.466ZM15.559,13.575l-2.432-2.146a.514.514,0,0,0-.341-.129H3.706A1.757,1.757,0,0,0,2.2,13.957a1.989,1.989,0,0,0-.824,2.955,2.243,2.243,0,0,0-.558,3.8,2.244,2.244,0,0,0,1.429,3.974H6.523c-.818,1.351-1.452,2.345-1.89,2.963a3.371,3.371,0,0,0,.075,3.168c.423.9,1.014,1.438,1.622,1.483a1.249,1.249,0,0,0,1.148-.645c.981-1.471,3.7-3.892,8.08-7.2Z" transform="translate(0 -11.3)" fill="#b2b1b6" fill-rule="evenodd"/>
</svg>
