<svg xmlns="http://www.w3.org/2000/svg" width="14.454" height="18.976" viewBox="0 0 14.454 18.976">
  <g id="document_7_" data-name="document (7)" transform="translate(-61)">
    <path id="Path_1299" data-name="Path 1299" d="M70.97,5.559a1.3,1.3,0,0,1-1.3-1.3V0H63.038A2.041,2.041,0,0,0,61,2.038v14.9a2.041,2.041,0,0,0,2.038,2.038H73.416a2.041,2.041,0,0,0,2.038-2.038V5.559Zm-6.931,7.783h2.7a.556.556,0,1,1,0,1.112h-2.7a.556.556,0,1,1,0-1.112Zm-.556-2.409a.556.556,0,0,1,.556-.556h8.154a.556.556,0,0,1,0,1.112H64.039A.556.556,0,0,1,63.483,10.933Zm8.709-3.521a.556.556,0,0,1,0,1.112H64.039a.556.556,0,1,1,0-1.112Z"/>
    <path id="Path_1300" data-name="Path 1300" d="M325,10.253a.186.186,0,0,0,.185.185h4.237a2.033,2.033,0,0,0-.39-.509l-3.574-3.381A2.043,2.043,0,0,0,325,6.221v4.032Z" transform="translate(-254.216 -5.99)"/>
  </g>
</svg>
