<svg width="7" height="31" viewBox="0 0 7 31" fill="none" xmlns="http://www.w3.org/2000/svg">
<g id="Group 1916" opacity="0.7">
<path id="Ellipse 368" d="M3.2002 6.48535C4.85705 6.48535 6.2002 5.14221 6.2002 3.48535C6.2002 1.8285 4.85705 0.485352 3.2002 0.485352C1.54334 0.485352 0.200195 1.8285 0.200195 3.48535C0.200195 5.14221 1.54334 6.48535 3.2002 6.48535Z" fill="white"/>
<path id="Ellipse 369" d="M3.2002 18.4854C4.85705 18.4854 6.2002 17.1422 6.2002 15.4854C6.2002 13.8285 4.85705 12.4854 3.2002 12.4854C1.54334 12.4854 0.200195 13.8285 0.200195 15.4854C0.200195 17.1422 1.54334 18.4854 3.2002 18.4854Z" fill="white"/>
<path id="Ellipse 370" d="M3.2002 30.4854C4.85705 30.4854 6.2002 29.1422 6.2002 27.4854C6.2002 25.8285 4.85705 24.4854 3.2002 24.4854C1.54334 24.4854 0.200195 25.8285 0.200195 27.4854C0.200195 29.1422 1.54334 30.4854 3.2002 30.4854Z" fill="white"/>
</g>
</svg>
