<svg width="35" height="8" viewBox="0 0 35 8" fill="none" xmlns="http://www.w3.org/2000/svg">
<g id="Group 1916" opacity="0.7">
<path id="Ellipse 368" d="M7.27968 4.25128C7.27968 2.36644 5.75172 0.838488 3.86689 0.838488C1.98206 0.838488 0.454102 2.36644 0.454102 4.25128C0.454102 6.13611 1.98206 7.66406 3.86689 7.66406C5.75172 7.66406 7.27968 6.13611 7.27968 4.25128Z" fill="white"/>
<path id="Ellipse 369" d="M20.931 4.25128C20.931 2.36644 19.4031 0.838488 17.5183 0.838488C15.6334 0.838488 14.1055 2.36644 14.1055 4.25128C14.1055 6.13611 15.6334 7.66406 17.5183 7.66406C19.4031 7.66406 20.931 6.13611 20.931 4.25128Z" fill="white"/>
<path id="Ellipse 370" d="M34.5819 4.25128C34.5819 2.36644 33.054 0.838488 31.1691 0.838488C29.2843 0.838488 27.7563 2.36644 27.7563 4.25128C27.7563 6.13611 29.2843 7.66406 31.1691 7.66406C33.054 7.66406 34.5819 6.13611 34.5819 4.25128Z" fill="white"/>
</g>
</svg>
