<svg width="40" height="40" viewBox="0 0 40 40" fill="none" xmlns="http://www.w3.org/2000/svg">
<g id="ellipsis-vertical 1">
<path id="Vector" d="M20 23.75C22.0711 23.75 23.75 22.0711 23.75 20C23.75 17.9289 22.0711 16.25 20 16.25C17.9289 16.25 16.25 17.9289 16.25 20C16.25 22.0711 17.9289 23.75 20 23.75Z" fill="#6B7280"/>
<path id="Vector_2" d="M20 36.25C22.0711 36.25 23.75 34.5711 23.75 32.5C23.75 30.4289 22.0711 28.75 20 28.75C17.9289 28.75 16.25 30.4289 16.25 32.5C16.25 34.5711 17.9289 36.25 20 36.25Z" fill="#6B7280"/>
<path id="Vector_3" d="M20 11.25C22.0711 11.25 23.75 9.57107 23.75 7.5C23.75 5.42893 22.0711 3.75 20 3.75C17.9289 3.75 16.25 5.42893 16.25 7.5C16.25 9.57107 17.9289 11.25 20 11.25Z" fill="#6B7280"/>
</g>
</svg>
