<svg xmlns="http://www.w3.org/2000/svg" width="21.292" height="17.127" viewBox="0 0 21.292 17.127">
  <g id="Group_1687" data-name="Group 1687" transform="translate(-327 -786)">
    <path id="SQ-icon_fellowship" d="M40.2,30.873a4.838,4.838,0,0,1,1.247-.191,3.836,3.836,0,1,1,0,7.672,4.921,4.921,0,0,1-1.247-.191,5.947,5.947,0,0,0,0-7.287Zm-4.7-.43a4.31,4.31,0,1,1-4.311,4.31,4.31,4.31,0,0,1,4.311-4.31Zm7.393,16.224a.912.912,0,0,1-.916.9H28.515a.912.912,0,0,1-.919-.9v-.009a7.937,7.937,0,0,1,4.32-7.113.631.631,0,0,1,.7.1,4.3,4.3,0,0,0,5.59.146.63.63,0,0,1,.706-.064,7.951,7.951,0,0,1,3.978,6.93Zm4.737.9h-2.9a17.972,17.972,0,0,0-1.047-5.07c-.711-1.679-2.3-2.2-2.007-2.831,3.092.458,7.214,1.947,7.214,4.466V46.31A1.272,1.272,0,0,1,47.63,47.57Z" transform="translate(299.403 755.557)" fill="#fff"/>
  </g>
</svg>
