<svg width="25" height="25" viewBox="0 0 25 25" fill="none" xmlns="http://www.w3.org/2000/svg">
<path d="M1.25 5H5.23125C5.74875 6.45125 7.1225 7.5 8.75 7.5C10.3775 7.5 11.7512 6.45125 12.2687 5H23.75C24.4412 5 25 4.44125 25 3.75C25 3.05875 24.4412 2.5 23.75 2.5H12.2687C11.7512 1.04875 10.3775 0 8.75 0C7.1225 0 5.74875 1.04875 5.23125 2.5H1.25C0.55875 2.5 0 3.05875 0 3.75C0 4.44125 0.55875 5 1.25 5Z" fill="white"/>
<path d="M23.75 11.25H19.7688C19.2513 9.79875 17.8775 8.75 16.25 8.75C14.6225 8.75 13.2488 9.79875 12.7313 11.25H1.25C0.55875 11.25 0 11.8087 0 12.5C0 13.1912 0.55875 13.75 1.25 13.75H12.7313C13.2488 15.2012 14.6237 16.25 16.25 16.25C17.8762 16.25 19.2513 15.2012 19.7688 13.75H23.75C24.4412 13.75 25 13.1912 25 12.5C25 11.8087 24.4412 11.25 23.75 11.25Z" fill="white"/>
<path d="M23.75 20H12.2687C11.7512 18.5487 10.3763 17.5 8.75 17.5C7.12375 17.5 5.74875 18.5487 5.23125 20H1.25C0.55875 20 0 20.5587 0 21.25C0 21.9412 0.55875 22.5 1.25 22.5H5.23125C5.74875 23.9512 7.1225 25 8.75 25C10.3775 25 11.7512 23.9512 12.2687 22.5H23.75C24.4412 22.5 25 21.9412 25 21.25C25 20.5587 24.4412 20 23.75 20Z" fill="white"/>
</svg>
