<svg xmlns="http://www.w3.org/2000/svg" width="19.895" height="18.237" viewBox="0 0 19.895 18.237">
  <g id="image_2_" data-name="image (2)" transform="translate(0 -0.492)">
    <path id="Path_1294" data-name="Path 1294" d="M5.181,157.136a3.1,3.1,0,0,1-2.936-2.115l-.029-.1a3.026,3.026,0,0,1-.143-.9v-5.652L.061,155.088a1.883,1.883,0,0,0,1.32,2.284L14.2,160.8a1.9,1.9,0,0,0,.478.061,1.848,1.848,0,0,0,1.791-1.355l.747-2.375Zm0,0" transform="translate(0 -142.136)"/>
    <path id="Path_1295" data-name="Path 1295" d="M150.978,67.808a1.658,1.658,0,1,0-1.658-1.658A1.66,1.66,0,0,0,150.978,67.808Zm0,0" transform="translate(-143.518 -61.513)"/>
    <path id="Path_1296" data-name="Path 1296" d="M99.827.492H87.393A2.075,2.075,0,0,0,85.32,2.565v9.119a2.075,2.075,0,0,0,2.072,2.073H99.827a2.075,2.075,0,0,0,2.073-2.073V2.565A2.075,2.075,0,0,0,99.827.492ZM87.393,2.15H99.827a.415.415,0,0,1,.415.415V8.45L97.623,5.394a1.485,1.485,0,0,0-1.112-.51,1.449,1.449,0,0,0-1.107.523L92.325,9.1l-1-1a1.455,1.455,0,0,0-2.056,0l-2.288,2.287V2.565A.415.415,0,0,1,87.393,2.15Zm0,0" transform="translate(-82.005 0)"/>
  </g>
</svg>
