<svg xmlns="http://www.w3.org/2000/svg" width="22.681" height="22.683" viewBox="0 0 22.681 22.683">
  <g id="Group_1977" data-name="Group 1977" transform="translate(-984.465 -236.175)">
    <g id="price-tag_1_" data-name="price-tag (1)" transform="translate(987.046 238.87)">
      <g id="Group_1976" data-name="Group 1976" transform="translate(0 0)">
        <path id="Path_1384" data-name="Path 1384" d="M1.451,0H7.48A2.02,2.02,0,0,1,8.718.515L16.983,8.78a1.454,1.454,0,0,1,0,2.051l-6.154,6.154a1.454,1.454,0,0,1-2.05,0L.513,8.72A2.021,2.021,0,0,1,0,7.483V1.453A1.455,1.455,0,0,1,1.451,0Zm2.9,5.8A1.451,1.451,0,1,0,2.9,4.354,1.451,1.451,0,0,0,4.352,5.8Z" transform="translate(0 -0.002)" fill="#b2b1b6"/>
      </g>
    </g>
    <g id="Layer_2_00000040536833494876644200000006405735802650839460_" transform="translate(984.965 236.64)">
      <g id="line" transform="translate(0 0.149)">
        <path id="Path_1385" data-name="Path 1385" d="M1.424,21.718A1.427,1.427,0,0,1,.417,19.282L19.139.56a1.426,1.426,0,0,1,2.018,2.014L2.436,21.3a1.443,1.443,0,0,1-1.011.417Z" transform="translate(0 -0.149)" fill="#b2b1b6" stroke="#161616" stroke-width="1"/>
      </g>
    </g>
  </g>
</svg>
