<svg xmlns="http://www.w3.org/2000/svg" width="18" height="18" viewBox="0 0 18 18">
  <g id="Group_2020" data-name="Group 2020" transform="translate(-35 -480)">
    <circle id="Ellipse_343" data-name="Ellipse 343" cx="9" cy="9" r="9" transform="translate(35 480)" fill="#fff"/>
    <g id="_21" data-name="21" transform="translate(36.124 480.307)">
      <path id="Path_1459" data-name="Path 1459" d="M3.179,8.693A5.867,5.867,0,0,1,4.529,4.962a.587.587,0,1,0-.9-.751,7.041,7.041,0,0,0,0,8.965.587.587,0,1,0,.9-.751A5.867,5.867,0,0,1,3.179,8.693Z" transform="translate(0 0)"/>
      <circle id="Ellipse_393" data-name="Ellipse 393" cx="1.173" cy="1.173" r="1.173" transform="translate(6.699 7.52)"/>
      <path id="Path_1460" data-name="Path 1460" d="M16.27,8.237a.587.587,0,1,0-1.009.587,2.934,2.934,0,0,1,0,2.934.587.587,0,0,0,.2.81.645.645,0,0,0,.305.082.587.587,0,0,0,.5-.282,4.142,4.142,0,0,0,0-4.107Z" transform="translate(-5.429 -1.609)"/>
      <path id="Path_1461" data-name="Path 1461" d="M7.366,8.079a.587.587,0,0,0-.81.2,4.142,4.142,0,0,0,0,4.107.587.587,0,0,0,.5.305.645.645,0,0,0,.305-.082.587.587,0,0,0,.2-.81,2.934,2.934,0,0,1,0-2.934.587.587,0,0,0-.2-.786Z" transform="translate(-1.652 -1.651)"/>
      <path id="Path_1462" data-name="Path 1462" d="M18.518,4.211a.587.587,0,1,0-.9.751,5.867,5.867,0,0,1,0,7.463.587.587,0,0,0,.9.751,7.041,7.041,0,0,0,0-8.965Z" transform="translate(-6.391 0)"/>
    </g>
  </g>
</svg>
