<svg xmlns="http://www.w3.org/2000/svg" width="25.084" height="18.199" viewBox="0 0 25.084 18.199">
  <g id="handshake_1_" data-name="handshake (1)" transform="translate(-5.326 -16.13)">
    <path id="Path_1373" data-name="Path 1373" d="M31.438,65.966a.956.956,0,0,0,.047.416,1.169,1.169,0,0,0,.737.715.79.79,0,0,0,.713-.069l.648-.7a.815.815,0,0,0,.125-.832,1.394,1.394,0,0,0-1.1-.791Z" transform="translate(-17.866 -33.246)" fill="#b8b8b8"/>
    <path id="Path_1374" data-name="Path 1374" d="M25.744,57.255l-1.133,1.215a.994.994,0,0,0-.168,1,1.332,1.332,0,0,0,.851.825.942.942,0,0,0,.97-.222l1.049-1.125a.985.985,0,0,0,.168-1,1.331,1.331,0,0,0-.851-.825A.847.847,0,0,0,25.744,57.255Z" transform="translate(-13.039 -28.012)" fill="#b8b8b8"/>
    <path id="Path_1375" data-name="Path 1375" d="M18.82,50.759l-1.046,1.123a1,1,0,0,0-.168,1,1.333,1.333,0,0,0,.851.824.964.964,0,0,0,.858-.1l1.161-1.246a.989.989,0,0,0,.168-1,1.327,1.327,0,0,0-.852-.824A.958.958,0,0,0,18.82,50.759Z" transform="translate(-8.361 -23.515)" fill="#b8b8b8"/>
    <path id="Path_1376" data-name="Path 1376" d="M12.091,43.958,10.932,45.2a.983.983,0,0,0-.168,1,1.326,1.326,0,0,0,.852.827.961.961,0,0,0,.856-.1l1.162-1.246h0a.979.979,0,0,0,.168-1,1.319,1.319,0,0,0-.851-.825.817.817,0,0,0-.86.1Z" transform="translate(-3.678 -18.926)" fill="#b8b8b8"/>
    <path id="Path_1377" data-name="Path 1377" d="M42.045,20.779a7.028,7.028,0,0,1-2.806.567,8.332,8.332,0,0,0-2.129.318l-3.164,1.168a.281.281,0,0,1-.066.017c-.153.024-.294.045-.421.062-.77.109-.859.142-.948.37a.83.83,0,0,0,.227.773,2.208,2.208,0,0,0,2.316.534l1.8-.238a3.334,3.334,0,0,1,2.464,1.059l4.846,3.877,0,0a6.861,6.861,0,0,0,2.8-1.944Z" transform="translate(-18.584 -3.181)" fill="#b8b8b8"/>
    <path id="Path_1378" data-name="Path 1378" d="M21.215,19.988c-.287.027-.616.063-.962.1a16.279,16.279,0,0,1-3.508.184l-4.958,6.454a2.806,2.806,0,0,1,.455.546,1.624,1.624,0,0,1,1.65-.391A2.034,2.034,0,0,1,15.2,28.147a1.826,1.826,0,0,1,.094.766,1.754,1.754,0,0,1,.758.057,2.029,2.029,0,0,1,1.306,1.268,1.817,1.817,0,0,1,.1.764,1.731,1.731,0,0,1,.758.059,2.038,2.038,0,0,1,1.3,1.264,1.811,1.811,0,0,1,.03,1.121,1.659,1.659,0,0,1,.186.046,1.884,1.884,0,0,1,1.184,1.146,1.546,1.546,0,0,1-.2,1.47l.88.7a.771.771,0,0,0,.822.047,1.182,1.182,0,0,0,.628-.817.934.934,0,0,0-.014-.419l-1.116-.893a.36.36,0,0,1-.059-.5.343.343,0,0,1,.486-.061l1.341,1.075a.963.963,0,0,0,.865-.03,1.341,1.341,0,0,0,.723-.943.985.985,0,0,0-.308-.965l-1.213-.971a.356.356,0,0,1-.059-.495.338.338,0,0,1,.485-.061L25.939,33.2a.948.948,0,0,0,1,.076,1.345,1.345,0,0,0,.722-.945.983.983,0,0,0-.311-.966l-1.764-1.409a.36.36,0,0,1-.059-.5.344.344,0,0,1,.487-.059s2.679,2.142,2.681,2.142a.958.958,0,0,0,.861-.032,1.334,1.334,0,0,0,.725-.941.984.984,0,0,0-.311-.965l-5.244-4.2A2.725,2.725,0,0,0,22.78,24.5l-1.766.23a2.908,2.908,0,0,1-2.962-.764,1.521,1.521,0,0,1-.349-1.494c.247-.638.719-.7,1.5-.814.116-.015.242-.033.38-.055l3.132-1.155a4.353,4.353,0,0,1,.662-.175,4.539,4.539,0,0,0-2.16-.281Z" transform="translate(-4.422 -2.626)" fill="#b8b8b8"/>
    <path id="Path_1379" data-name="Path 1379" d="M9.987,16.152c-.57-.043-1.091.387-1.841,1.363l-1.917,2.5c-.693.9-.953,1.461-.9,1.936a1.621,1.621,0,0,0,.587.989l.909.726,4.938-6.427-.639-.512a2.216,2.216,0,0,0-1.141-.572Z" transform="translate(0 -0.013)" fill="#b8b8b8"/>
    <path id="Path_1380" data-name="Path 1380" d="M66.372,16.132a2.2,2.2,0,0,0-1.148.558l-.646.5,4.87,6.48.629-.49a1.941,1.941,0,0,0,.873-1.19c.063-.473-.189-1.038-.871-1.951L68.193,17.52c-.735-.986-1.249-1.424-1.821-1.388Z" transform="translate(-40.55 0)" fill="#b8b8b8"/>
  </g>
</svg>
