<svg xmlns="http://www.w3.org/2000/svg" width="20.377" height="20.71" viewBox="0 0 20.377 20.71">
  <g id="healthcare_2_" data-name="healthcare (2)" transform="translate(622.884 1438.078)">
    <g id="Group_1971" data-name="Group 1971" transform="translate(-622.884 -1438.078)">
      <g id="Group_1970" data-name="Group 1970" transform="translate(0 11.395)">
        <path id="Path_1369" data-name="Path 1369" d="M4.116,338.887l2.342,5.877,1.948-1.171-2.342-5.877Z" transform="translate(-4.116 -335.449)" fill="#b2b1b6"/>
        <path id="Path_1370" data-name="Path 1370" d="M107.488,281.962a4.072,4.072,0,0,0-3.294.242l-3.829,2.233-.02.017-.008.006v0h0a1.514,1.514,0,0,1-.965.36H96.328v-.988h2.6a.878.878,0,0,0,.006-1.757l-2.956-.02a.491.491,0,0,1-.176-.035,3.6,3.6,0,0,0-3.038-.057,4.126,4.126,0,0,0-1.852,2.414l1.616,4.054H98.62l8.957-5.632A.493.493,0,0,0,107.488,281.962Z" transform="translate(-87.404 -281.658)" fill="#b2b1b6"/>
      </g>
      <path id="Path_1371" data-name="Path 1371" d="M228.252,1.618c-1.942-4.383-9.477.879-.032,6.971l0-.022c9.9-6.092,1.657-11.193.036-6.949Z" transform="translate(-214.688 -0.001)" fill="#b2b1b6"/>
    </g>
  </g>
</svg>
