<svg width="9" height="17" viewBox="0 0 9 17" fill="none" xmlns="http://www.w3.org/2000/svg">
<path id="Icon ionic-ios-arrow-back" d="M6.12689 8.53235L0.36689 2.78035C0.168076 2.57501 0.0580496 2.29968 0.0605899 2.01388C0.0631302 1.72807 0.178033 1.45474 0.380466 1.25297C0.582898 1.05119 0.8566 0.937176 1.14241 0.935564C1.42823 0.933953 1.7032 1.04487 1.90789 1.24435L8.43389 7.76535C8.63118 7.96324 8.7446 8.22957 8.75056 8.50894C8.75652 8.78831 8.65456 9.05923 8.46589 9.26535L1.91189 15.8324C1.7072 16.0318 1.43223 16.1428 1.14641 16.1411C0.860599 16.1395 0.586899 16.0255 0.384466 15.8237C0.182034 15.622 0.0671299 15.3486 0.0645896 15.0628C0.0620493 14.777 0.172077 14.5017 0.370891 14.2964L6.12689 8.53235Z" fill="#9B9B9B"/>
</svg>
