<svg xmlns="http://www.w3.org/2000/svg" width="17.485" height="20" viewBox="0 0 17.485 20">
  <g id="Layer_2_00000097469747894302416050000002917915783155835571_" transform="translate(-62.325 0.156)">
    <g id="upload_arrow" transform="translate(62.325 -0.156)">
      <path id="Path_1365" data-name="Path 1365" d="M41.041,327.96h-4.87a3.734,3.734,0,0,1-3.843-3.869q-.006-1.179,0-2.357a1.241,1.241,0,1,1,2.476-.008c0,.8,0,1.6,0,2.4a1.218,1.218,0,0,0,1.328,1.327H46a1.22,1.22,0,0,0,1.328-1.327c0-.8,0-1.6,0-2.4a1.238,1.238,0,1,1,2.468.008,26.664,26.664,0,0,1-.078,3.064,3.62,3.62,0,0,1-3.64,3.159C44.4,327.968,42.72,327.96,41.041,327.96Z" transform="translate(-32.325 -307.963)" fill="#aeadb2"/>
      <path id="Path_1366" data-name="Path 1366" d="M101.213,4.167c-.187.178-.3.276-.4.379-.789.809-1.571,1.623-2.364,2.424a1.275,1.275,0,0,1-1.851.115A1.324,1.324,0,0,1,96.664,5.2Q99.078,2.734,101.5.282a1.24,1.24,0,0,1,1.882,0q2.444,2.464,4.868,4.943a1.308,1.308,0,0,1,.039,1.856A1.269,1.269,0,0,1,106.47,7c-.8-.813-1.594-1.639-2.391-2.456-.1-.107-.214-.205-.377-.359-.012.225-.023.371-.023.521,0,2.582,0,5.168,0,7.75a1.234,1.234,0,1,1-2.461-.039q-.006-3.832,0-7.668Z" transform="translate(-93.71 0.15)" fill="#aeadb2"/>
    </g>
  </g>
</svg>
