<svg xmlns="http://www.w3.org/2000/svg" width="19.451" height="17.405" viewBox="0 0 19.451 17.405">
  <g id="love-money" transform="translate(-1 -26.44)">
    <g id="Group_2004" data-name="Group 2004" transform="translate(1 26.44)">
      <g id="Group_2003" data-name="Group 2003">
        <path id="Path_1450" data-name="Path 1450" d="M223.837,184.7a.951.951,0,0,0-.188.568.906.906,0,0,0,.172.53,1.176,1.176,0,0,0,.521.393v-1.857h0A1.027,1.027,0,0,0,223.837,184.7Z" transform="translate(-214.995 -178.226)" fill="#fff"/>
        <path id="Path_1451" data-name="Path 1451" d="M16.317,26.762c-3.234-1.155-5.5,1.057-6.591,2.533h0c-1.093-1.477-3.356-3.688-6.59-2.533C0,27.883-1.647,32.834,2.392,37.785a22.924,22.924,0,0,0,7.333,6.06h0a22.924,22.924,0,0,0,7.335-6.06C21.1,32.834,19.452,27.883,16.317,26.762ZM11.763,38.63a2.65,2.65,0,0,1-1.64.826v1H9.346v-.988a2.482,2.482,0,0,1-1.507-.689A2.833,2.833,0,0,1,7.1,37.151l1.4-.159a1.756,1.756,0,0,0,.32.739,1.432,1.432,0,0,0,.524.45V35.934a2.961,2.961,0,0,1-1.544-.91,2.286,2.286,0,0,1-.491-1.478,2.087,2.087,0,0,1,.556-1.478,2.24,2.24,0,0,1,1.479-.69v-.533h.776v.532a2.3,2.3,0,0,1,1.363.584,2.261,2.261,0,0,1,.646,1.289l-1.359.179a1.1,1.1,0,0,0-.65-.861v2.1a3.459,3.459,0,0,1,1.761.9,2.135,2.135,0,0,1,.467,1.423A2.372,2.372,0,0,1,11.763,38.63Z" transform="translate(0 -26.44)" fill="#fff"/>
        <path id="Path_1452" data-name="Path 1452" d="M261.548,277.759v2.1a1.155,1.155,0,0,0,.658-.381,1.039,1.039,0,0,0,.254-.7.939.939,0,0,0-.213-.618A1.373,1.373,0,0,0,261.548,277.759Z" transform="translate(-251.427 -268.034)" fill="#fff"/>
      </g>
    </g>
  </g>
</svg>
