<svg xmlns="http://www.w3.org/2000/svg" width="21.291" height="18.554" viewBox="0 0 21.291 18.554">
  <g id="Group_1690" data-name="Group 1690" transform="translate(-95 -785)">
    <path id="SQ-icon_meditate" d="M30.037,38.4l-1.792.3a10.686,10.686,0,0,1,1.378-7.231l1.556.937A8.854,8.854,0,0,0,30.037,38.4Zm15.1,8.842a.788.788,0,0,1-.792.783H32.711a.788.788,0,0,1-.792-.783v-.008a6.858,6.858,0,0,1,3.732-6.147.538.538,0,0,1,.6.08,3.713,3.713,0,0,0,4.846.125.535.535,0,0,1,.6-.048,6.871,6.871,0,0,1,3.439,5.99ZM35.022,36.952a3.728,3.728,0,1,1,1.9,3.249,3.728,3.728,0,0,1-1.9-3.249Zm9.6,4.622L43.2,40.451a5.605,5.605,0,0,0,1.21-3.5,5.663,5.663,0,1,0-10.327,3.211l-1.5,1.031a7.479,7.479,0,1,1,12.039.38ZM49.251,38.7l-1.792-.3a8.856,8.856,0,0,0-1.169-6.049l1.549-.946a10.627,10.627,0,0,1,1.555,5.543,10.746,10.746,0,0,1-.142,1.748Z" transform="translate(66.898 755.527)" fill="#fff"/>
  </g>
</svg>
