<svg xmlns="http://www.w3.org/2000/svg" width="20.292" height="16.014" viewBox="0 0 20.292 16.014">
  <g id="chat-bubbles-with-ellipsis" transform="translate(0 -3.24)">
    <path id="Path_1289" data-name="Path 1289" d="M21.839,9.67h-.556v6.109A1.654,1.654,0,0,1,19.62,17.59H8.743v.29a1.959,1.959,0,0,0,1.939,1.69H19l3.181,1.871-.461-1.871h.122a1.5,1.5,0,0,0,1.424-1.69V11.12A1.309,1.309,0,0,0,21.839,9.67Z" transform="translate(-2.972 -2.186)" fill="#fff"/>
    <path id="Path_1290" data-name="Path 1290" d="M15.024,3.24H2.391C1.279,3.24,0,4.227,0,5.179v7.656c0,.877,1.084,1.51,2.123,1.607l-.677,2.568,4.335-2.55h9.242c1.112,0,2.137-.674,2.137-1.625V5.179A2.182,2.182,0,0,0,15.024,3.24ZM4.318,9.7A1.141,1.141,0,1,1,5.459,8.562,1.141,1.141,0,0,1,4.318,9.7Zm4.263,0A1.141,1.141,0,1,1,9.722,8.562,1.141,1.141,0,0,1,8.58,9.7Zm4.263,0a1.141,1.141,0,1,1,1.141-1.141A1.142,1.142,0,0,1,12.844,9.7Z" transform="translate(0 0)" fill="#fff"/>
  </g>
</svg>
