<svg width="21" height="21" viewBox="0 0 21 21" fill="none" xmlns="http://www.w3.org/2000/svg">
<g id="multiple-users-silhouette 1" opacity="0.7" clip-path="url(#clip0_350_713)">
<g id="Group">
<path id="Vector" d="M12.8728 5.08607C13.7976 5.66588 14.446 6.64704 14.5641 7.78593C14.9412 7.96215 15.3598 8.06348 15.8036 8.06348C17.4237 8.06348 18.7368 6.75037 18.7368 5.1305C18.7368 3.51038 17.4237 2.19727 15.8036 2.19727C14.1989 2.19776 12.8973 3.48742 12.8728 5.08607ZM10.9512 11.0918C12.5713 11.0918 13.8845 9.77845 13.8845 8.15858C13.8845 6.53871 12.5711 5.22559 10.9512 5.22559C9.33135 5.22559 8.01749 6.53896 8.01749 8.15883C8.01749 9.7787 9.33135 11.0918 10.9512 11.0918ZM12.1954 11.2917H9.70649C7.63561 11.2917 5.95085 12.9767 5.95085 15.0476V18.0914L5.95858 18.1391L6.16824 18.2048C8.14453 18.8223 9.86149 19.0282 11.2747 19.0282C14.035 19.0282 15.6349 18.2412 15.7335 18.191L15.9294 18.0919H15.9503V15.0476C15.9511 12.9767 14.2663 11.2917 12.1954 11.2917ZM17.0483 8.26366H14.5786C14.5519 9.2518 14.1301 10.1416 13.4629 10.7816C15.3036 11.3289 16.6505 13.0359 16.6505 15.0521V15.9901C19.089 15.9007 20.4942 15.2096 20.5868 15.1632L20.7827 15.0639H20.8037V12.0191C20.8037 9.94842 19.1189 8.26366 17.0483 8.26366ZM5.80434 8.06398C6.37815 8.06398 6.91203 7.8965 7.3643 7.61122C7.50807 6.67349 8.01075 5.85407 8.72883 5.29598C8.73183 5.24107 8.73707 5.18666 8.73707 5.13125C8.73707 3.51113 7.4237 2.19801 5.80434 2.19801C4.18397 2.19801 2.8711 3.51113 2.8711 5.13125C2.8711 6.75062 4.18397 8.06398 5.80434 8.06398ZM8.43855 10.7816C7.77463 10.1449 7.35432 9.25979 7.32362 8.27764C7.23202 8.2709 7.14141 8.26366 7.04806 8.26366H4.55936C2.48847 8.26366 0.803711 9.94842 0.803711 12.0191V15.0634L0.811448 15.1103L1.02111 15.1764C2.60653 15.6714 4.02148 15.8995 5.25048 15.9714V15.0521C5.25098 13.0359 6.5973 11.3294 8.43855 10.7816Z" fill="#C6C6C6"/>
</g>
</g>
<defs>
<clipPath id="clip0_350_713">
<rect width="20" height="20" fill="white" transform="translate(0.803711 0.613281)"/>
</clipPath>
</defs>
</svg>
