<svg width="23" height="23" viewBox="0 0 23 23" fill="none" xmlns="http://www.w3.org/2000/svg">
<g id="mute (1) 1">
<path id="Vector" d="M11.6777 4.52494C11.5313 4.44662 11.3665 4.40952 11.2007 4.41759C11.0349 4.42566 10.8743 4.47861 10.7363 4.57077L5.47004 8.08344H2.99504C2.75192 8.08344 2.51876 8.18001 2.34685 8.35192C2.17495 8.52383 2.07837 8.75699 2.07837 9.0001V14.5001C2.07837 14.7432 2.17495 14.9764 2.34685 15.1483C2.51876 15.3202 2.75192 15.4168 2.99504 15.4168H5.47004L10.739 18.9294C10.8775 19.0186 11.0373 19.0691 11.2018 19.0756C11.3664 19.0822 11.5297 19.0447 11.6749 18.9668C11.82 18.889 11.9417 18.7738 12.0273 18.6331C12.1129 18.4925 12.1593 18.3314 12.1617 18.1668V5.33344C12.1618 5.16748 12.1168 5.00462 12.0315 4.86223C11.9463 4.71984 11.824 4.60327 11.6777 4.52494Z" fill="#999999"/>
<path id="Vector_2" d="M18.0412 11.7501L20.1432 9.64821C20.3101 9.47533 20.4025 9.24378 20.4004 9.00343C20.3983 8.76308 20.3019 8.53317 20.132 8.36321C19.962 8.19325 19.7321 8.09685 19.4918 8.09476C19.2514 8.09267 19.0199 8.18507 18.847 8.35205L16.7451 10.454L14.6432 8.35205C14.4703 8.18507 14.2387 8.09267 13.9984 8.09476C13.758 8.09685 13.5281 8.19325 13.3582 8.36321C13.1882 8.53317 13.0918 8.76308 13.0897 9.00343C13.0876 9.24378 13.18 9.47533 13.347 9.64821L15.4489 11.7501L13.347 13.852C13.2594 13.9366 13.1896 14.0378 13.1416 14.1496C13.0935 14.2614 13.0682 14.3817 13.0672 14.5034C13.0661 14.6251 13.0893 14.7458 13.1354 14.8585C13.1815 14.9712 13.2496 15.0735 13.3356 15.1596C13.4217 15.2456 13.524 15.3137 13.6367 15.3598C13.7494 15.4059 13.8701 15.4291 13.9918 15.428C14.1135 15.427 14.2338 15.4017 14.3456 15.3536C14.4574 15.3056 14.5586 15.2358 14.6432 15.1482L16.7451 13.0463L18.847 15.1482C19.0199 15.3152 19.2514 15.4076 19.4918 15.4055C19.7321 15.4034 19.962 15.307 20.132 15.137C20.3019 14.9671 20.3983 14.7372 20.4004 14.4968C20.4025 14.2565 20.3101 14.0249 20.1432 13.852L18.0412 11.7501Z" fill="#999999"/>
</g>
</svg>
