<svg xmlns="http://www.w3.org/2000/svg" width="24.367" height="24.367" viewBox="0 0 24.367 24.367">
  <path id="office-push-pin" d="M17.962,5.907,10.986-1.069a.414.414,0,0,0-.586,0l-.019.019A1.443,1.443,0,0,0,9.956-.023a1.444,1.444,0,0,0,.182.7L5.454,4.7a1.954,1.954,0,0,0-2.683.077L2.743,4.8a.414.414,0,0,0,0,.586L6.616,9.262,4,11.873c-.052.054-1.288,1.328-2.1,2.341-.774.965-.927,1.142-.935,1.151a.414.414,0,0,0,.584.584c.007-.006.18-.156,1.151-.935,1.013-.813,2.287-2.049,2.345-2.105L7.656,10.3,11.5,14.149a.414.414,0,0,0,.586,0l.028-.028a1.954,1.954,0,0,0,.077-2.683l4.019-4.683a1.452,1.452,0,0,0,1.73-.244l.019-.019A.414.414,0,0,0,17.962,5.907Z" transform="translate(0.23 13.628) rotate(-45)" fill="#aeadb2"/>
</svg>
