<svg id="photo-camera_2_" data-name="photo-camera (2)" xmlns="http://www.w3.org/2000/svg" width="25.95" height="20.76" viewBox="0 0 25.95 20.76">
  <g id="Group_1897" data-name="Group 1897" transform="translate(0 0)">
    <g id="Group_1896" data-name="Group 1896">
      <path id="Path_1292" data-name="Path 1292" d="M22.847,50.714H20.14l-1.495-2.257A3.107,3.107,0,0,0,16.078,47.1H9.872a3.107,3.107,0,0,0-2.567,1.354L5.811,50.714H3.1a3.094,3.094,0,0,0-3.1,3.1V64.761a3.094,3.094,0,0,0,3.1,3.1H22.847a3.094,3.094,0,0,0,3.1-3.1V53.817A3.094,3.094,0,0,0,22.847,50.714ZM12.975,65.325a6.981,6.981,0,1,1,7-6.967A6.994,6.994,0,0,1,12.975,65.325Zm9.477-10.239H21.211a.918.918,0,0,1,0-1.833H22.34a.916.916,0,0,1,.959.874A.893.893,0,0,1,22.452,55.086Z" transform="translate(0 -47.104)"/>
    </g>
  </g>
  <g id="Group_1899" data-name="Group 1899" transform="translate(9.083 7.362)">
    <g id="Group_1898" data-name="Group 1898" transform="translate(0 0)">
      <path id="Path_1293" data-name="Path 1293" d="M168.757,180.736a3.878,3.878,0,1,0,3.893,3.864A3.9,3.9,0,0,0,168.757,180.736Z" transform="translate(-164.864 -180.736)"/>
    </g>
  </g>
</svg>
