<svg xmlns="http://www.w3.org/2000/svg" width="24.767" height="21.49" viewBox="0 0 24.767 21.49">
  <g id="pray" transform="translate(17.64 -17.721)">
    <path id="Path_1445" data-name="Path 1445" d="M126.933,17.722a1.094,1.094,0,0,0-1.077.931l-1.41,11.056a.659.659,0,0,1-.239.429l-1.393,1.128,2.444,2.482,2.465-2.465a1.012,1.012,0,0,0,.3-.72V18.81A1.089,1.089,0,0,0,126.933,17.722Z" transform="translate(-132.829 -0.001)" fill="#b2b1b6"/>
    <path id="Path_1447" data-name="Path 1447" d="M276.169,31.264l-1.393-1.128a.659.659,0,0,1-.239-.429l-1.41-11.056a1.088,1.088,0,0,0-2.165.158V30.561a1.012,1.012,0,0,0,.3.72l2.465,2.465Z" transform="translate(-274.452 0)" fill="#b2b1b6"/>
    <path id="Path_1448" data-name="Path 1448" d="M340.916,323.142l-4.252,4.32,2.99,3.022a.659.659,0,0,0,.951-.015l3.6-3.879a.659.659,0,0,0-.08-.971Z" transform="translate(-337.26 -291.969)" fill="#b2b1b6"/>
    <path id="reply" d="M5.938,4.97V2.445a.445.445,0,0,0-.755-.319L.135,7.024a.445.445,0,0,0,0,.639l5.047,4.9a.445.445,0,0,0,.755-.319V9.719H6.78a7.572,7.572,0,0,1,6.622,3.9l.012.023a.446.446,0,0,0,.391.232.44.44,0,0,0,.11-.014.445.445,0,0,0,.335-.432A8.471,8.471,0,0,0,5.938,4.97Z" transform="translate(-17.14 24.835)" fill="#b2b1b6" stroke="#161616" stroke-width="1"/>
  </g>
</svg>
