<svg xmlns="http://www.w3.org/2000/svg" width="18" height="19.607" viewBox="0 0 18 19.607">
  <g id="Group_1691" data-name="Group 1691" transform="translate(-27 -785)">
    <path id="SQ-icon_pray" d="M41.225,46.163,41.1,46.4a2.317,2.317,0,0,1-1.5,1.224c-.049.014-3.953.03-5.854.037A1.069,1.069,0,0,1,32.669,46.6v-.011a9.326,9.326,0,0,1,5.083-8.367,6.642,6.642,0,0,1,1.854.265l-.83,4.867a.479.479,0,0,1-.572.387L36.7,43.419a.478.478,0,0,0-.579.467h0a.479.479,0,0,0,.39.471l2.533.475a.479.479,0,0,0,.562-.4l.839-5.414a.484.484,0,0,1,.294-.4,1.1,1.1,0,0,1,.146-.05h.342Zm-2.034-8.63a5.062,5.062,0,1,1,2.479.651,5.062,5.062,0,0,1-2.479-.651Zm11.479,9.075a1.07,1.07,0,0,1-1.075,1.059H43.4a1.681,1.681,0,0,1-1.252-1.091l-.169-.476V38.562h.439a.529.529,0,0,1,.476.51c.061.415.613,4.031.817,5.361a.477.477,0,0,0,.561.4l2.559-.481a.479.479,0,1,0-.189-.938l-1.512.327a.479.479,0,0,1-.574-.4l-.678-4.795s1.283-.318,1.68-.358a1.639,1.639,0,0,1,1.01.463,9.029,9.029,0,0,1,.913.738,9.761,9.761,0,0,1,1.55,1.827,9.93,9.93,0,0,1,1.608,4.623c.021.252.031.5.031.761Z" transform="translate(-5.669 756.94)" fill="#fff"/>
  </g>
</svg>
