<svg xmlns="http://www.w3.org/2000/svg" width="21.583" height="19.044" viewBox="0 0 21.583 19.044">
  <g id="Group_1688" data-name="Group 1688" transform="translate(-253 -785)">
    <path id="SQ-icon_proclaim" d="M36.6,31.968a4.473,4.473,0,1,1-4.474,4.474A4.473,4.473,0,0,1,36.6,31.968ZM44.275,48.8a.947.947,0,0,1-.951.938H29.35A.947.947,0,0,1,28.4,48.8v-.009a8.232,8.232,0,0,1,4.483-7.382.654.654,0,0,1,.732.1,4.464,4.464,0,0,0,5.8.152.652.652,0,0,1,.732-.067,8.251,8.251,0,0,1,4.126,7.193ZM48.048,36.56h-2.67L43.11,38.006a.246.246,0,0,1-.363-.3l.482-1.264a1.936,1.936,0,0,1-1.286-1.824V32.634A1.936,1.936,0,0,1,43.88,30.7h4.168a1.936,1.936,0,0,1,1.936,1.936v1.988a1.936,1.936,0,0,1-1.936,1.938Z" transform="translate(224.599 754.303)" fill="#fff"/>
  </g>
</svg>
