<svg xmlns="http://www.w3.org/2000/svg" width="17" height="17" viewBox="0 0 17 17">
  <g id="refresh-arrow" transform="translate(0 -0.003)">
    <path id="Path_1354" data-name="Path 1354" d="M16.568.766a.639.639,0,0,0-.775.155L14.355,2.349A8.59,8.59,0,0,0,11.649.617,8.386,8.386,0,0,0,5.2.678,8.4,8.4,0,0,0,.675,5.2a8.393,8.393,0,0,0,0,6.6A8.4,8.4,0,0,0,5.2,16.327,8.27,8.27,0,0,0,8.5,17a8.44,8.44,0,0,0,3.619-.8,8.31,8.31,0,0,0,2.922-2.263.364.364,0,0,0,.083-.249.307.307,0,0,0-.105-.227L13.5,11.934a.426.426,0,0,0-.277-.1.345.345,0,0,0-.255.133A5.63,5.63,0,0,1,6.3,13.721,5.611,5.611,0,0,1,3.282,10.7a5.608,5.608,0,0,1,0-4.394A5.612,5.612,0,0,1,6.3,3.285a5.52,5.52,0,0,1,2.2-.448,5.5,5.5,0,0,1,3.863,1.516L10.835,5.88a.63.63,0,0,0-.155.764.662.662,0,0,0,.653.443h4.958A.718.718,0,0,0,17,6.378V1.42A.662.662,0,0,0,16.568.766Z" fill="#a6a5aa"/>
  </g>
</svg>
