<svg xmlns="http://www.w3.org/2000/svg" width="25.298" height="21.503" viewBox="0 0 25.298 21.503">
  <path id="unread" d="M23.5,9.589a3.795,3.795,0,1,0-3.795-3.795A3.795,3.795,0,0,0,23.5,9.589ZM3.265,5.795H17.179a6.327,6.327,0,0,0,4.479,6.051l-5.6,2.24a3.8,3.8,0,0,1-2.819,0L2.8,9.907A1.265,1.265,0,0,1,2,8.733V7.06A1.265,1.265,0,0,1,3.265,5.795Zm9.975,10.82L2,12.119V22.238A1.265,1.265,0,0,0,3.265,23.5H26.033A1.265,1.265,0,0,0,27.3,22.238V12.119l-11.24,4.5A3.8,3.8,0,0,1,13.24,16.615Z" transform="translate(-2 -2)" fill="#b2b1b6" fill-rule="evenodd"/>
</svg>
