<svg width="36" height="36" viewBox="0 0 36 36" fill="none" xmlns="http://www.w3.org/2000/svg">
<g id="Voice">
<g id="Group 2290">
<g id="Group">
<g id="Group_2">
<path id="Vector" d="M28.3324 17.0249H27.0524C26.6412 17.0249 26.3076 17.3586 26.3076 17.7697V20.3874C26.3076 24.9682 22.5804 28.6953 17.9994 28.6953C13.4184 28.6953 9.692 24.9682 9.692 20.3874V17.7697C9.692 17.3586 9.35831 17.0249 8.94717 17.0249H7.66719C7.25604 17.0249 6.92236 17.3586 6.92236 17.7697V20.3874C6.92236 25.8646 11.1802 30.6911 16.6148 31.376V33.2306H10.8982C10.4871 33.2306 10.1534 33.5643 10.1534 33.9754V35.2551C10.1534 35.6662 10.4871 35.9999 10.8982 35.9999H25.1013C25.5125 35.9999 25.8461 35.6662 25.8461 35.2551V33.9754C25.8461 33.5643 25.5125 33.2306 25.1013 33.2306H19.3844V31.376C24.8194 30.6915 29.0768 25.8646 29.0768 20.3874V17.7697C29.0772 17.3582 28.7435 17.0249 28.3324 17.0249Z" fill="white"/>
</g>
</g>
<path id="Subtract" fill-rule="evenodd" clip-rule="evenodd" d="M24.409 21.375C24.1497 24.6836 21.3742 27.2966 17.9999 27.2966C14.4549 27.2966 11.5713 24.413 11.5713 20.8683V6.42865C11.5713 2.88362 14.4549 0 17.9999 0C21.4641 0 24.2971 2.75377 24.4244 6.1875H18.2813V9H24.4288V12.375H18.2813V15.1875H24.4288V18.5625H18.2813V21.375H24.409Z" fill="white"/>
</g>
</g>
</svg>
